# xmcd
#
# Track frame offsets: 
#        300
#        17510
#        32704
#        51962
#        65382
#        79125
#        102028
#        118260
#        136495
#        153786
#        170145
#        187710
#        204739
#        215745
#        241058
#
# Disc length: 3601 seconds
#
# Revision: 4
# Processed by: cddbd v1.5.2PL0 Copyright (c) Steve Scherf et al.
# Submitted via: ExactAudioCopy v1.0b1
#
DISCID=cc0e0d0f
DTITLE=Angela Strehli Band - Soul Shake
DYEAR=1987
DGENRE=General Blues
TTITLE0=I Wouldn't Treat A Dog
TTITLE1=Your Sweetness
TTITLE2=Be Bop Man
TTITLE3=It Hurts Me Too
TTITLE4=Take It From Me
TTITLE5=Mean Mistreater
TTITLE6=Soul Shake
TTITLE7=20% Alcohol
TTITLE8=Tough Times
TTITLE9=Back In My Arms
TTITLE10=In Spite Of What You Do
TTITLE11=Bigtown Playboy
TTITLE12=Voodoo
TTITLE13=Stranger Blues
TTITLE14=Wang Dang Doodle
EXTD=
EXTT0=
EXTT1=
EXTT2=
EXTT3=
EXTT4=
EXTT5=
EXTT6=
EXTT7=
EXTT8=
EXTT9=
EXTT10=
EXTT11=
EXTT12=
EXTT13=
EXTT14=
PLAYORDER=
